<?xml version="1.0" standalone="no"?>
<svg xmlns="http://www.w3.org/2000/svg" viewBox="0 0 1440 320">
  <defs>
    <linearGradient id="gradient" x1="0%" y1="0%" x2="100%" y2="0%">
      <stop offset="0%" stop-color="#8CCAFE"/>
      <stop offset="20%" stop-color="#CC8DFF"/>
      <stop offset="40%" stop-color="#FF878D"/>
      <stop offset="60%" stop-color="#BAC0FD"/>
      <stop offset="80%" stop-color="#E3BAA5"/>
      <stop offset="100%" stop-color="#B8B8B8"/>
    </linearGradient>
  </defs>
  <path fill="url(#gradient)" fill-opacity="1" d="M0,160L21.8,138.7C43.6,117,87,75,131,85.3C174.5,96,218,160,262,186.7C305.5,213,349,203,393,170.7C436.4,139,480,85,524,74.7C567.3,64,611,96,655,122.7C698.2,149,742,171,785,160C829.1,149,873,107,916,80C960,53,1004,43,1047,53.3C1090.9,64,1135,96,1178,128C1221.8,160,1265,192,1309,192C1352.7,192,1396,160,1418,144L1440,128L1440,320L1418.2,320C1396.4,320,1353,320,1309,320C1265.5,320,1222,320,1178,320C1134.5,320,1091,320,1047,320C1003.6,320,960,320,916,320C872.7,320,829,320,785,320C741.8,320,698,320,655,320C610.9,320,567,320,524,320C480,320,436,320,393,320C349.1,320,305,320,262,320C218.2,320,175,320,131,320C87.3,320,44,320,22,320L0,320Z"></path>
</svg>