<svg width="206" height="61" viewBox="0 0 206 61" fill="none" xmlns="http://www.w3.org/2000/svg">
<path d="M7.50005 38C8.16307 38 8.79902 38.2634 9.26785 38.7322C9.73667 39.2011 9.99995 39.837 9.99995 40.5V45.5C9.99994 46.163 9.73666 46.7989 9.26785 47.2678C8.79903 47.7366 8.16305 48 7.50005 48H2.50008C1.83707 48 1.20111 47.7366 0.732285 47.2678C0.26346 46.7989 9.9021e-06 46.163 0 45.5V40.5C0 39.837 0.263474 39.2011 0.732285 38.7322C1.20111 38.2634 1.83707 38 2.50008 38H7.50005Z" fill="url(#paint0_linear_5_2)"/>
<path d="M12.5 41.1023C14.3544 42.293 16.5345 43 18.8687 43C20.1334 43 21.353 42.8032 22.5 42.4381V45.5C22.5 46.163 22.2365 46.7989 21.7677 47.2678C21.2989 47.7365 20.6631 48 20.0001 48H14.9999C14.3369 48 13.7011 47.7366 13.2323 47.2678C12.7635 46.7989 12.5 46.163 12.5 45.5V41.1023Z" fill="url(#paint1_linear_5_2)"/>
<path d="M32.4999 38C33.1629 38 33.7989 38.2634 34.2677 38.7322C34.7366 39.2011 35 39.837 35 40.5V45.5C35 46.163 34.7365 46.7989 34.2677 47.2678C33.7989 47.7366 33.1629 48 32.4999 48H27.4999C26.8369 48 26.201 47.7366 25.7321 47.2678C25.2633 46.7989 25.0001 46.163 25.0001 45.5V41.3129C26.3085 40.5341 27.4629 39.5141 28.405 38.3125C28.3223 38.2068 28.2377 38.1027 28.1518 38H32.4999Z" fill="url(#paint2_linear_5_2)"/>
<path d="M7.50005 25.5C7.55435 25.5 7.60851 25.5018 7.66236 25.5053C7.00988 27.035 6.64804 28.7243 6.64804 30.5C6.64805 32.3116 7.02641 33.9575 7.70532 35.4912C7.63731 35.4968 7.56881 35.5 7.50005 35.5H2.50008C1.83707 35.5 1.20111 35.2366 0.732285 34.7678C0.26346 34.2989 9.9021e-06 33.663 0 33V28C0 27.337 0.263474 26.7011 0.732285 26.2322C1.20111 25.7634 1.83707 25.5 2.50008 25.5H7.50005Z" fill="url(#paint3_linear_5_2)"/>
<path d="M32.4999 25.5C33.1629 25.5 33.7989 25.7634 34.2677 26.2322C34.7366 26.7011 35 27.337 35 28V33C35 33.663 34.7365 34.2989 34.2677 34.7678C33.7989 35.2366 33.1629 35.5 32.4999 35.5H27.4999C26.8369 35.5 26.201 35.2366 25.7321 34.7678C25.2633 34.2989 25.0001 33.663 25.0001 33V28C25.0001 27.337 25.2634 26.7011 25.7321 26.2322C26.201 25.7634 26.8369 25.5 27.4999 25.5H32.4999Z" fill="url(#paint4_linear_5_2)"/>
<path d="M19.7242 25.5C20.3662 25.6149 20.9823 25.8581 21.5359 26.2188C21.6644 26.3017 21.8004 26.3705 21.9415 26.4252C22.3011 26.8685 22.5 27.424 22.5 28V33C22.5 33.5758 22.3012 34.131 21.9418 34.5742C21.8006 34.629 21.6645 34.6981 21.5359 34.7812C20.9868 35.1409 20.376 35.3841 19.7396 35.5H17.9988C17.3621 35.3842 16.7509 35.1411 16.2016 34.7812L15.838 34.5C15.5778 34.3004 15.3353 34.0778 15.1132 33.8348L15.062 33.7787C14.874 33.5303 14.6833 33.264 14.5972 33.0998C14.4007 32.7248 14.1927 32.0935 14.1903 32.0863C14.0017 31.545 13.9048 31.0747 13.9041 30.5C13.9044 29.59 14.1438 28.6968 14.5972 27.9139C15.0506 27.1309 15.7014 26.487 16.4815 26.0494C16.9611 25.7804 17.4787 25.5956 18.0129 25.5H19.7242Z" fill="url(#paint5_linear_5_2)"/>
<path d="M7.50005 13C8.16307 13 8.79902 13.2634 9.26785 13.7322C9.73667 14.2011 9.99995 14.837 9.99995 15.5V20.5C9.99994 21.163 9.73666 21.7989 9.26785 22.2678C8.79903 22.7366 8.16305 23 7.50005 23H2.50008C1.83707 23 1.20111 22.7366 0.732285 22.2678C0.26346 21.7989 9.9021e-06 21.163 0 20.5V15.5C0 14.837 0.263474 14.2011 0.732285 13.7322C1.20111 13.2634 1.83707 13 2.50008 13H7.50005Z" fill="url(#paint6_linear_5_2)"/>
<path d="M32.4999 13C33.1629 13 33.7989 13.2634 34.2677 13.7322C34.7366 14.2011 35 14.837 35 15.5V20.5C35 21.163 34.7365 21.7989 34.2677 22.2678C33.7989 22.7366 33.1629 23 32.4999 23H28.1517C28.2376 22.8973 28.3222 22.7932 28.405 22.6875C27.46 21.4777 26.3046 20.4608 25.0001 19.6861V15.5C25.0001 14.837 25.2634 14.2011 25.7321 13.7322C26.201 13.2634 26.8369 13 27.4999 13H32.4999Z" fill="url(#paint7_linear_5_2)"/>
<path d="M20.0001 13C20.6631 13 21.2989 13.2634 21.7677 13.7322C22.2365 14.2011 22.5 14.837 22.5 15.5V18.5633C21.3275 18.1902 20.1034 17.9991 18.8687 18C16.5352 18 14.3546 18.6688 12.5 19.8293V15.5C12.5 14.837 12.7635 14.2011 13.2323 13.7322C13.7011 13.2634 14.3369 13 14.9999 13H20.0001Z" fill="url(#paint8_linear_5_2)"/>
<path d="M61.032 39.288C59.736 39.288 58.528 39.08 57.408 38.664C56.304 38.232 55.344 37.624 54.528 36.84C53.712 36.056 53.072 35.136 52.608 34.08C52.16 33.024 51.936 31.864 51.936 30.6C51.936 29.336 52.16 28.176 52.608 27.12C53.072 26.064 53.712 25.144 54.528 24.36C55.36 23.576 56.328 22.976 57.432 22.56C58.536 22.128 59.744 21.912 61.056 21.912C62.512 21.912 63.824 22.168 64.992 22.68C66.176 23.176 67.168 23.912 67.968 24.888L65.472 27.192C64.896 26.536 64.256 26.048 63.552 25.728C62.848 25.392 62.08 25.224 61.248 25.224C60.464 25.224 59.744 25.352 59.088 25.608C58.432 25.864 57.864 26.232 57.384 26.712C56.904 27.192 56.528 27.76 56.256 28.416C56 29.072 55.872 29.8 55.872 30.6C55.872 31.4 56 32.128 56.256 32.784C56.528 33.44 56.904 34.008 57.384 34.488C57.864 34.968 58.432 35.336 59.088 35.592C59.744 35.848 60.464 35.976 61.248 35.976C62.08 35.976 62.848 35.816 63.552 35.496C64.256 35.16 64.896 34.656 65.472 33.984L67.968 36.288C67.168 37.264 66.176 38.008 64.992 38.52C63.824 39.032 62.504 39.288 61.032 39.288ZM72.4896 39V21.192H76.2336V39H72.4896ZM88.0123 39.192C86.6363 39.192 85.4123 38.904 84.3403 38.328C83.2843 37.752 82.4443 36.968 81.8203 35.976C81.2123 34.968 80.9083 33.824 80.9083 32.544C80.9083 31.248 81.2123 30.104 81.8203 29.112C82.4443 28.104 83.2843 27.32 84.3403 26.76C85.4123 26.184 86.6363 25.896 88.0123 25.896C89.3723 25.896 90.5883 26.184 91.6603 26.76C92.7323 27.32 93.5723 28.096 94.1803 29.088C94.7883 30.08 95.0923 31.232 95.0923 32.544C95.0923 33.824 94.7883 34.968 94.1803 35.976C93.5723 36.968 92.7323 37.752 91.6603 38.328C90.5883 38.904 89.3723 39.192 88.0123 39.192ZM88.0123 36.12C88.6363 36.12 89.1963 35.976 89.6923 35.688C90.1883 35.4 90.5803 34.992 90.8683 34.464C91.1563 33.92 91.3003 33.28 91.3003 32.544C91.3003 31.792 91.1563 31.152 90.8683 30.624C90.5803 30.096 90.1883 29.688 89.6923 29.4C89.1963 29.112 88.6363 28.968 88.0123 28.968C87.3883 28.968 86.8283 29.112 86.3323 29.4C85.8363 29.688 85.4363 30.096 85.1323 30.624C84.8443 31.152 84.7003 31.792 84.7003 32.544C84.7003 33.28 84.8443 33.92 85.1323 34.464C85.4363 34.992 85.8363 35.4 86.3323 35.688C86.8283 35.976 87.3883 36.12 88.0123 36.12ZM105.203 39.192C104.131 39.192 103.171 38.984 102.323 38.568C101.491 38.152 100.843 37.52 100.379 36.672C99.9149 35.808 99.6829 34.712 99.6829 33.384V26.088H103.427V32.832C103.427 33.904 103.651 34.696 104.099 35.208C104.563 35.704 105.211 35.952 106.043 35.952C106.619 35.952 107.131 35.832 107.579 35.592C108.027 35.336 108.379 34.952 108.635 34.44C108.891 33.912 109.019 33.256 109.019 32.472V26.088H112.763V39H109.211V35.448L109.859 36.48C109.427 37.376 108.787 38.056 107.939 38.52C107.107 38.968 106.195 39.192 105.203 39.192ZM123.935 39.192C122.719 39.192 121.623 38.92 120.647 38.376C119.671 37.816 118.895 37.04 118.319 36.048C117.759 35.056 117.479 33.888 117.479 32.544C117.479 31.184 117.759 30.008 118.319 29.016C118.895 28.024 119.671 27.256 120.647 26.712C121.623 26.168 122.719 25.896 123.935 25.896C125.023 25.896 125.975 26.136 126.791 26.616C127.607 27.096 128.239 27.824 128.687 28.8C129.135 29.776 129.359 31.024 129.359 32.544C129.359 34.048 129.143 35.296 128.711 36.288C128.279 37.264 127.655 37.992 126.839 38.472C126.039 38.952 125.071 39.192 123.935 39.192ZM124.583 36.12C125.191 36.12 125.743 35.976 126.239 35.688C126.735 35.4 127.127 34.992 127.415 34.464C127.719 33.92 127.871 33.28 127.871 32.544C127.871 31.792 127.719 31.152 127.415 30.624C127.127 30.096 126.735 29.688 126.239 29.4C125.743 29.112 125.191 28.968 124.583 28.968C123.959 28.968 123.399 29.112 122.903 29.4C122.407 29.688 122.007 30.096 121.703 30.624C121.415 31.152 121.271 31.792 121.271 32.544C121.271 33.28 121.415 33.92 121.703 34.464C122.007 34.992 122.407 35.4 122.903 35.688C123.399 35.976 123.959 36.12 124.583 36.12ZM127.967 39V36.36L128.039 32.52L127.799 28.704V21.192H131.543V39H127.967ZM143.577 39.192C142.105 39.192 140.809 38.904 139.689 38.328C138.585 37.752 137.729 36.968 137.121 35.976C136.513 34.968 136.209 33.824 136.209 32.544C136.209 31.248 136.505 30.104 137.097 29.112C137.705 28.104 138.529 27.32 139.569 26.76C140.609 26.184 141.785 25.896 143.097 25.896C144.361 25.896 145.497 26.168 146.505 26.712C147.529 27.24 148.337 28.008 148.929 29.016C149.521 30.008 149.817 31.2 149.817 32.592C149.817 32.736 149.809 32.904 149.793 33.096C149.777 33.272 149.761 33.44 149.745 33.6H139.257V31.416H147.777L146.337 32.064C146.337 31.392 146.201 30.808 145.929 30.312C145.657 29.816 145.281 29.432 144.801 29.16C144.321 28.872 143.761 28.728 143.121 28.728C142.481 28.728 141.913 28.872 141.417 29.16C140.937 29.432 140.561 29.824 140.289 30.336C140.017 30.832 139.881 31.424 139.881 32.112V32.688C139.881 33.392 140.033 34.016 140.337 34.56C140.657 35.088 141.097 35.496 141.657 35.784C142.233 36.056 142.905 36.192 143.673 36.192C144.361 36.192 144.961 36.088 145.473 35.88C146.001 35.672 146.481 35.36 146.913 34.944L148.905 37.104C148.313 37.776 147.569 38.296 146.673 38.664C145.777 39.016 144.745 39.192 143.577 39.192ZM154.469 39V26.088H158.045V29.736L157.541 28.68C157.925 27.768 158.541 27.08 159.389 26.616C160.237 26.136 161.269 25.896 162.485 25.896V29.352C162.325 29.336 162.181 29.328 162.053 29.328C161.925 29.312 161.789 29.304 161.645 29.304C160.621 29.304 159.789 29.6 159.149 30.192C158.525 30.768 158.213 31.672 158.213 32.904V39H154.469ZM166.895 39V26.088H170.639V39H166.895ZM168.767 24.288C168.079 24.288 167.519 24.088 167.087 23.688C166.655 23.288 166.439 22.792 166.439 22.2C166.439 21.608 166.655 21.112 167.087 20.712C167.519 20.312 168.079 20.112 168.767 20.112C169.455 20.112 170.015 20.304 170.447 20.688C170.879 21.056 171.095 21.536 171.095 22.128C171.095 22.752 170.879 23.272 170.447 23.688C170.031 24.088 169.471 24.288 168.767 24.288ZM182.514 39.192C181.122 39.192 179.882 38.912 178.794 38.352C177.706 37.776 176.85 36.984 176.226 35.976C175.618 34.968 175.314 33.824 175.314 32.544C175.314 31.248 175.618 30.104 176.226 29.112C176.85 28.104 177.706 27.32 178.794 26.76C179.882 26.184 181.122 25.896 182.514 25.896C183.874 25.896 185.058 26.184 186.066 26.76C187.074 27.32 187.818 28.128 188.298 29.184L185.394 30.744C185.058 30.136 184.634 29.688 184.122 29.4C183.626 29.112 183.082 28.968 182.49 28.968C181.85 28.968 181.274 29.112 180.762 29.4C180.25 29.688 179.842 30.096 179.538 30.624C179.25 31.152 179.106 31.792 179.106 32.544C179.106 33.296 179.25 33.936 179.538 34.464C179.842 34.992 180.25 35.4 180.762 35.688C181.274 35.976 181.85 36.12 182.49 36.12C183.082 36.12 183.626 35.984 184.122 35.712C184.634 35.424 185.058 34.968 185.394 34.344L188.298 35.928C187.818 36.968 187.074 37.776 186.066 38.352C185.058 38.912 183.874 39.192 182.514 39.192ZM200.533 39V36.48L200.293 35.928V31.416C200.293 30.616 200.045 29.992 199.549 29.544C199.069 29.096 198.325 28.872 197.317 28.872C196.629 28.872 195.949 28.984 195.277 29.208C194.621 29.416 194.061 29.704 193.597 30.072L192.253 27.456C192.957 26.96 193.805 26.576 194.797 26.304C195.789 26.032 196.797 25.896 197.821 25.896C199.789 25.896 201.317 26.36 202.405 27.288C203.493 28.216 204.037 29.664 204.037 31.632V39H200.533ZM196.597 39.192C195.589 39.192 194.725 39.024 194.005 38.688C193.285 38.336 192.733 37.864 192.349 37.272C191.965 36.68 191.773 36.016 191.773 35.28C191.773 34.512 191.957 33.84 192.325 33.264C192.709 32.688 193.309 32.24 194.125 31.92C194.941 31.584 196.005 31.416 197.317 31.416H200.749V33.6H197.725C196.845 33.6 196.237 33.744 195.901 34.032C195.581 34.32 195.421 34.68 195.421 35.112C195.421 35.592 195.605 35.976 195.973 36.264C196.357 36.536 196.877 36.672 197.533 36.672C198.157 36.672 198.717 36.528 199.213 36.24C199.709 35.936 200.069 35.496 200.293 34.92L200.869 36.648C200.597 37.48 200.101 38.112 199.381 38.544C198.661 38.976 197.733 39.192 196.597 39.192Z" fill="white"/>
<defs>
<linearGradient id="paint0_linear_5_2" x1="-31.2431" y1="24.6506" x2="50.2871" y2="23.092" gradientUnits="userSpaceOnUse">
<stop offset="0.269611" stop-color="#8CCAFE"/>
<stop offset="0.375" stop-color="#CC8DFF"/>
<stop offset="0.4895" stop-color="#FF878D"/>
<stop offset="0.590856" stop-color="#BAC0FD"/>
<stop offset="0.696844" stop-color="#E3BAA5"/>
<stop offset="0.821694" stop-color="#B8B8B8"/>
</linearGradient>
<linearGradient id="paint1_linear_5_2" x1="-31.2431" y1="24.6506" x2="50.2871" y2="23.092" gradientUnits="userSpaceOnUse">
<stop offset="0.269611" stop-color="#8CCAFE"/>
<stop offset="0.375" stop-color="#CC8DFF"/>
<stop offset="0.4895" stop-color="#FF878D"/>
<stop offset="0.590856" stop-color="#BAC0FD"/>
<stop offset="0.696844" stop-color="#E3BAA5"/>
<stop offset="0.821694" stop-color="#B8B8B8"/>
</linearGradient>
<linearGradient id="paint2_linear_5_2" x1="-31.2431" y1="24.6506" x2="50.2871" y2="23.092" gradientUnits="userSpaceOnUse">
<stop offset="0.269611" stop-color="#8CCAFE"/>
<stop offset="0.375" stop-color="#CC8DFF"/>
<stop offset="0.4895" stop-color="#FF878D"/>
<stop offset="0.590856" stop-color="#BAC0FD"/>
<stop offset="0.696844" stop-color="#E3BAA5"/>
<stop offset="0.821694" stop-color="#B8B8B8"/>
</linearGradient>
<linearGradient id="paint3_linear_5_2" x1="-31.2431" y1="24.6506" x2="50.2871" y2="23.092" gradientUnits="userSpaceOnUse">
<stop offset="0.269611" stop-color="#8CCAFE"/>
<stop offset="0.375" stop-color="#CC8DFF"/>
<stop offset="0.4895" stop-color="#FF878D"/>
<stop offset="0.590856" stop-color="#BAC0FD"/>
<stop offset="0.696844" stop-color="#E3BAA5"/>
<stop offset="0.821694" stop-color="#B8B8B8"/>
</linearGradient>
<linearGradient id="paint4_linear_5_2" x1="-31.2431" y1="24.6506" x2="50.2871" y2="23.092" gradientUnits="userSpaceOnUse">
<stop offset="0.269611" stop-color="#8CCAFE"/>
<stop offset="0.375" stop-color="#CC8DFF"/>
<stop offset="0.4895" stop-color="#FF878D"/>
<stop offset="0.590856" stop-color="#BAC0FD"/>
<stop offset="0.696844" stop-color="#E3BAA5"/>
<stop offset="0.821694" stop-color="#B8B8B8"/>
</linearGradient>
<linearGradient id="paint5_linear_5_2" x1="-31.2431" y1="24.6506" x2="50.2871" y2="23.092" gradientUnits="userSpaceOnUse">
<stop offset="0.269611" stop-color="#8CCAFE"/>
<stop offset="0.375" stop-color="#CC8DFF"/>
<stop offset="0.4895" stop-color="#FF878D"/>
<stop offset="0.590856" stop-color="#BAC0FD"/>
<stop offset="0.696844" stop-color="#E3BAA5"/>
<stop offset="0.821694" stop-color="#B8B8B8"/>
</linearGradient>
<linearGradient id="paint6_linear_5_2" x1="-31.2431" y1="24.6506" x2="50.2871" y2="23.092" gradientUnits="userSpaceOnUse">
<stop offset="0.269611" stop-color="#8CCAFE"/>
<stop offset="0.375" stop-color="#CC8DFF"/>
<stop offset="0.4895" stop-color="#FF878D"/>
<stop offset="0.590856" stop-color="#BAC0FD"/>
<stop offset="0.696844" stop-color="#E3BAA5"/>
<stop offset="0.821694" stop-color="#B8B8B8"/>
</linearGradient>
<linearGradient id="paint7_linear_5_2" x1="-31.2431" y1="24.6506" x2="50.2871" y2="23.092" gradientUnits="userSpaceOnUse">
<stop offset="0.269611" stop-color="#8CCAFE"/>
<stop offset="0.375" stop-color="#CC8DFF"/>
<stop offset="0.4895" stop-color="#FF878D"/>
<stop offset="0.590856" stop-color="#BAC0FD"/>
<stop offset="0.696844" stop-color="#E3BAA5"/>
<stop offset="0.821694" stop-color="#B8B8B8"/>
</linearGradient>
<linearGradient id="paint8_linear_5_2" x1="-31.2431" y1="24.6506" x2="50.2871" y2="23.092" gradientUnits="userSpaceOnUse">
<stop offset="0.269611" stop-color="#8CCAFE"/>
<stop offset="0.375" stop-color="#CC8DFF"/>
<stop offset="0.4895" stop-color="#FF878D"/>
<stop offset="0.590856" stop-color="#BAC0FD"/>
<stop offset="0.696844" stop-color="#E3BAA5"/>
<stop offset="0.821694" stop-color="#B8B8B8"/>
</linearGradient>
</defs>
</svg>
